<svg xmlns="http://www.w3.org/2000/svg" width="22" height="22" fill="none"><path stroke="#512689" stroke-linecap="round" stroke-linejoin="round" stroke-width="2" d="M9.554 5.24 6.171 1.335c-.39-.45-1.105-.448-1.558.006L1.831 4.128c-.828.829-1.065 2.06-.586 3.047a29.207 29.207 0 0 0 13.561 13.58c.986.479 2.216.242 3.044-.587l2.808-2.813c.455-.455.456-1.174.002-1.564l-3.92-3.365c-.41-.352-1.047-.306-1.458.106l-1.364 1.366a.462.462 0 0 1-.553.088 14.556 14.556 0 0 1-5.36-5.367.463.463 0 0 1 .088-.554l1.36-1.361c.412-.414.457-1.054.101-1.465v.001Z"/></svg>